<svg width="24" height="24" viewBox="0 0 24 24" fill="none" xmlns="http://www.w3.org/2000/svg">
<path d="M10 19.5H14M10.6667 22H13.3333" stroke="#002337" stroke-width="1.5" stroke-linecap="round"/>
<path d="M15 2.60222C14.0907 2.21646 13.0736 2 12 2C8.13401 2 5 4.8069 5 8.21807L5.00007 8.30193C5.00875 10.2984 5.86939 12.2187 7.41058 13.6805L8.51463 14.7196C8.82437 15.0112 9 15.4177 9 15.843C9 16.482 9.518 17 10.157 17H13.843C14.482 17 15 16.482 15 15.843C15 15.4177 15.1756 15.0112 15.4854 14.7196L16.5894 13.6805C18.1306 12.2187 18.9912 10.2984 18.9999 8.30193L19 8.21807C19 7.43838 18.8363 6.69025 18.5375 6" fill="#FF971E"/>
<path d="M15 2.60222C14.0907 2.21646 13.0736 2 12 2C8.13401 2 5 4.8069 5 8.21807L5.00007 8.30193C5.00875 10.2984 5.86939 12.2187 7.41058 13.6805L8.51463 14.7196C8.82437 15.0112 9 15.4177 9 15.843C9 16.482 9.518 17 10.157 17H13.843C14.482 17 15 16.482 15 15.843C15 15.4177 15.1756 15.0112 15.4854 14.7196L16.5894 13.6805C18.1306 12.2187 18.9912 10.2984 18.9999 8.30193L19 8.21807C19 7.43838 18.8363 6.69025 18.5375 6" stroke="#002337" stroke-width="1.5" stroke-linecap="round"/>
<rect x="5.48901" y="14.5726" width="2.36461" height="1.56278" rx="0.2" transform="rotate(-129.433 5.48901 14.5726)" fill="#002337"/>
<rect x="3.13574" y="9.59894" width="2.36461" height="1.56278" rx="0.2" transform="rotate(-93.6289 3.13574 9.59894)" fill="#002337"/>
<rect x="3.84082" y="4.43329" width="2.36461" height="1.56278" rx="0.2" transform="rotate(-48.849 3.84082 4.43329)" fill="#002337"/>
<rect x="7.86377" y="0.878235" width="2.36461" height="1.56278" rx="0.2" transform="rotate(-13.0446 7.86377 0.878235)" fill="#002337"/>
<rect x="12.6511" y="0.344543" width="2.36461" height="1.56278" rx="0.2" transform="rotate(6.93658 12.6511 0.344543)" fill="#002337"/>
<rect x="20.8403" y="6.5462" width="2.36461" height="1.56278" rx="0.2" transform="rotate(87.5208 20.8403 6.5462)" fill="#002337"/>
<rect x="20.3813" y="11.8953" width="2.36461" height="1.56278" rx="0.2" transform="rotate(123.325 20.3813 11.8953)" fill="#002337"/>
</svg>
